# xmcd
#
# Track frame offsets: 
#        150
#        14414
#        29961
#        56540
#        78947
#        103704
#        121494
#        151675
#        167593
#        189413
#        209481
#        228021
#
# Disc length: 3330 seconds
#
# Revision: 2
# Processed by: cddbd v1.5.2PL0 Copyright (c) Steve Scherf et al.
# Submitted via: ExactAudioCopy v1.0b3
#
DISCID=940d000c
DTITLE=Count Basie - For THe First Time
DYEAR=1974
DGENRE=Blues
TTITLE0=Baby Lawrence
TTITLE1=Pres
TTITLE2=I'll Always Be In Love With You
TTITLE3=Blues In The Church
TTITLE4=O Lady Be Good (Concept 1)
TTITLE5=O Lady Be Good (Concept 2)
TTITLE6=Blues In The Alley
TTITLE7=As Long As I Live
TTITLE8=Song Of The Islands
TTITLE9=Royal Garden Blues
TTITLE10=(Un)Easy Does It
TTITLE11=O.P.
EXTD=
EXTT0=
EXTT1=
EXTT2=
EXTT3=
EXTT4=
EXTT5=
EXTT6=
EXTT7=
EXTT8=
EXTT9=
EXTT10=
EXTT11=
PLAYORDER=
